<svg id="Capa_1" enable-background="new 0 0 497 497" height="512" viewBox="0 0 497 497" width="512" xmlns="http://www.w3.org/2000/svg"><g><path d="m107.311 216.831c-17.948 0-32.498 14.55-32.498 32.497l-11.698 70.342 11.698 64.563c0 17.948 14.55 32.497 32.498 32.497 17.948 0 32.498-14.55 32.498-32.497v-134.905c0-17.948-14.55-32.497-32.498-32.497z" fill="#5f6c75"/><path d="m122.308 413.06c-4.49 2.35-9.59 3.67-15 3.67-17.95 0-32.49-14.55-32.49-32.5l-19.363-78.007 19.363-56.893c0-17.95 14.54-32.5 32.49-32.5 5.41 0 10.51 1.32 15 3.67-10.4 5.41-17.49 16.29-17.49 28.83v134.9c0 12.54 7.09 23.42 17.49 28.83z" fill="#4e5a61"/><g><path d="m423.881 480.606-148.517 4.544c-9.308 0-17.318-7.153-17.756-16.451-.468-9.927 7.443-18.123 17.267-18.123h130.02c9.547 0 21.817-8.423 21.817-17.97l-4.53-84.275c0-9.308 7.153-17.318 16.451-17.756 9.927-.468 18.123 7.443 18.123 17.267v104.895c.001 17.902-14.974 27.869-32.875 27.869z" fill="#e0f5fc"/></g><g><path d="m456.758 443.76v8.98c0 17.9-14.51 32.41-32.41 32.41h-148.98c-9.31 0-17.32-7.15-17.76-16.45-.18-3.79.86-7.33 2.78-10.26 2.92 5.8 9.1 9.71 15.98 9.71h148.98c15.13 0 27.84-10.37 31.41-24.39z" fill="#d3effd"/></g><path d="m456.758 347.84c0-6.224-3.3-11.672-8.238-14.714.003-.002.005-.004.008-.006-.391-.242-.795-.464-1.206-.674-.11-.056-.224-.105-.335-.159-.359-.174-.724-.335-1.096-.484-.151-.06-.301-.119-.454-.175-.398-.146-.802-.278-1.213-.395-.098-.028-.192-.062-.291-.088-.496-.132-1.002-.239-1.515-.327-.153-.026-.309-.045-.464-.067-.391-.056-.783-.099-1.176-.129-.168-.013-.334-.026-.503-.034-.541-.025-1.085-.033-1.638-.008-9.3.43-16.46 8.44-16.46 17.75v65.01 19.95c0 9.55-7.73 17.29-17.28 17.29h18c9.543 0 17.28-7.737 17.28-17.28v-25.665c0-1.908 1.086-3.65 2.799-4.49l13.781-6.755v-48.55z" fill="#d3effd"/><path d="m474.402 257.178-13.125-6.434c-1.889-.926-3.077-2.86-3.057-4.964.121-12.627-.07-22.815.01-24.579 0-31.738-7.068-61.855-19.712-88.86-33.39-71.314-121.148-118.754-204.85-119.224 0 0-191.742 94.277-191.1 209.495v22.686c0 2.416-1.324 4.634-3.454 5.776-4.127 2.213-7.15 6.953-8.196 7.614-7.485 3.67-12.23 11.28-12.23 19.616l-2.553 66.564c0 8.337 4.744 15.946 12.23 19.616l46.447 26.574c0-16.933 0-155.051 0-168.173 0-96.29 77.402-175.617 173.685-175.914 96.283.297 173.685 79.625 173.685 175.914v168.173l45.698-24.751c7.485-3.67 14.979-10.387 14.979-18.723l3.772-8.095v-62.695c.001-8.336-4.744-15.946-12.229-19.616z" fill="#5f6c75"/><path d="m389.685 216.831c17.948 0 32.498 14.55 32.498 32.497l8.645 71.704-8.645 63.201c0 17.948-14.55 32.497-32.498 32.497-17.948 0-32.498-14.55-32.498-32.497v-134.905c.001-17.948 14.55-32.497 32.498-32.497z" fill="#5f6c75"/><path d="m396.708 407.21c2.33 2.33 5.02 4.31 7.98 5.85-4.49 2.35-9.59 3.67-15 3.67-8.97 0-17.1-3.64-22.98-9.52s-9.52-14.01-9.52-22.98v-134.9c0-17.95 14.55-32.5 32.5-32.5 5.41 0 10.51 1.32 15 3.67-10.4 5.41-17.5 16.29-17.5 28.83v134.9c0 8.97 3.64 17.1 9.52 22.98z" fill="#4e5a61"/><path d="m438.518 132.34c-33.39-71.31-105.67-120.93-189.37-121.4v-.02c-82.37-.92-155.38 48.98-190.07 119.61-13.84 28.17-21.59 59.64-21.4 92.49v22.68c0 2.42-1.33 4.64-3.46 5.78-4.12 2.21-10.58 5.04-11.62 5.7-7.49 3.67-12.23 11.28-12.23 19.61v69.05c0 8.34 4.74 15.95 12.23 19.62l52.22 25.6v-20.49l-44.74-20.38c-1.65-.8-2.71-2.51-2.71-4.35v-69.05c.246-5.791 10.616-7.158 14.89-10.33 7.66-4.11 12.42-12.06 12.42-20.76v-22.68c-.169-25.499 4.875-50.623 14.78-74.28 1.094-2.614 4.512-3.282 6.511-1.274 3.584 3.601 7.633 7.36 11.769 9.004 25.89-63.81 87.92-109.27 160.76-109.5 73.15.23 135.4 46.07 161.08 110.31 8.13 20.32 12.6 42.47 12.6 65.61v168.17l52.22-25.6c7.49-3.67 12.23-11.28 12.23-19.62v-6.35l-38.715 19.827c-3.992 2.045-8.735-.855-8.735-5.34v-131.087c0-26.206-5.217-51.214-14.666-74.023-.645-1.557-.268-3.349.97-4.492z" fill="#4e5a61"/><path d="m92.902 136.063c4.91 4.91 13.152 4.069 16.859-1.803 8.367-13.252 18.587-25.224 30.293-35.547 28.794-25.394 66.578-40.819 107.898-40.819 39.396 0 75.579 14.022 103.819 37.338 13.697 11.309 25.526 24.804 34.947 39.946 3.635 5.843 11.639 7.013 16.696 2.346l26.915-24.836c3.944-3.64 4.652-9.611 1.67-14.074-15.324-22.931-34.815-42.851-57.382-58.668-35.903-25.165-79.59-39.946-126.665-39.946-53.92 0-103.396 19.392-141.819 51.569-15.439 12.928-29.093 27.92-40.535 44.548-2.984 4.336-2.46 10.184 1.262 13.905z" fill="#f9af38"/><path d="m408.378 132.94-4.96 4.58c-5.06 4.67-13.07 3.5-16.7-2.34-9.42-15.14-21.25-28.64-34.95-39.95-28.24-23.31-64.42-37.34-103.82-37.34-41.32 0-79.1 15.43-107.89 40.82-11.71 10.33-21.93 22.3-30.3 35.55-3.7 5.87-11.95 6.71-16.86 1.8l-5.93-5.93c10.85-14.08 31.11-38.7 39.86-46.42 33.5-29.54 76.52-45.82 121.12-45.82 42.43 0 83.82 14.89 116.56 41.92 11.62 9.6 33.17 38.22 43.87 53.13z" fill="#f48931"/><g><g><g><path d="m308.222 326.836c-.022 0-.044 0-.066 0-4.142-.036-7.471-3.422-7.435-7.564.059-6.814.119-14.492.175-22.45h-43.307c-2.653 0-5.109-1.402-6.458-3.687s-1.39-5.113-.108-7.436c5.701-10.333 34.428-62.235 40.145-69.25 6.147-7.544 12.636-6.554 15.141-5.778 5.315 1.646 9.1 6.904 9.641 13.396.306 3.668.202 32.579.048 57.755h5.454c4.142 0 7.5 3.358 7.5 7.5s-3.358 7.5-7.5 7.5h-5.554c-.08 11.183-.154 19.916-.177 22.579-.036 4.12-3.388 7.434-7.499 7.435zm-37.9-45.015h30.672c.139-22.939.215-45.21.095-53.441-5.411 8.367-19.505 33.217-30.767 53.441z" fill="#b3e59f"/></g></g><g><g><path d="m198.939 327.849c-19.334 0-20.71-.46-21.721-.797-2.552-.851-4.456-2.77-5.223-5.264-1.356-4.41.503-6.844 6.665-14.913 5.182-6.785 14.827-19.415 30.982-42.497 4.992-7.133 8.209-13.564 9.568-19.124l.387-3.025c-.234-10.012-8.451-18.084-18.517-18.084-8.833 0-16.476 6.276-18.174 14.924-.798 4.064-4.74 6.71-8.805 5.914-4.064-.798-6.712-4.74-5.914-8.805 3.077-15.664 16.91-27.033 32.893-27.033 18.484 0 33.522 15.038 33.522 33.522 0 .318-.02.636-.061.951l-.503 3.934c-.032.25-.076.498-.133.743-1.743 7.518-5.771 15.823-11.974 24.685-14.103 20.149-23.311 32.437-28.941 39.841 10.023.043 24.666-.051 38.328-.224 4.182-.024 7.542 3.263 7.594 7.405s-3.264 7.542-7.405 7.594c-14.409.181-24.902.253-32.568.253zm-18.012-15.278" fill="#b3e59f"/></g></g></g><path d="m294.434 493.628-49.702.17c-5.523 0-10-4.477-10-10l-1.915-31.702c0-5.523 4.477-10 10-10l4.931-3.439h14.86l8.337 6.12 6.663-6.12h20.854c5.523 0 10 4.477 10 10v31.343l-4.028 3.628c0 5.523-4.477 10-10 10z" fill="#5f6c75"/><path d="m308.458 480v7c0 5.52-4.47 10-10 10h-56.71c-5.52 0-10-4.48-10-10v-38.34c0-5.53 4.48-10 10-10h6v31.34c0 5.52 4.48 10 10 10z" fill="#4e5a61"/><g><path d="m262.608 438.66h15v58.34h-15z" fill="#4e5a61"/></g></g></svg>